<svg xmlns="http://www.w3.org/2000/svg" viewBox="0 0 100 100">
  <rect width="100" height="100" rx="20" fill="#000000" />
  <path d="M60 25v30a15 15 0 0 1-30 0 15 15 0 0 1 15-15v10a5 5 0 0 0-5 10 5 5 0 0 0 10 0V25h10a15 15 0 0 0 15 15v-10a5 5 0 0 1-5-5h-10z" fill="#25F4EE" />
  <path d="M50 25v40a15 15 0 0 1-30 0 15 15 0 0 1 15-15v10a5 5 0 0 0-5 10 5 5 0 0 0 10 0V25h10a15 15 0 0 0 15 15v-10a5 5 0 0 1-5-5h-10z" fill="#FE2C55" />
  <path d="M55 25v35a15 15 0 0 1-30 0 15 15 0 0 1 15-15v10a5 5 0 0 0-5 10 5 5 0 0 0 10 0V25h10a15 15 0 0 0 15 15v-10a5 5 0 0 1-5-5h-10z" fill="#FFFFFF" />
</svg>
